<svg version="1.0" xmlns="http://www.w3.org/2000/svg"
     width="55.000000pt" height="55.000000pt" viewBox="0 0 55.000000 55.000000"
     preserveAspectRatio="xMidYMid meet">
  <g transform="translate(0.000000,55.000000) scale(0.004583,-0.004583)"
     fill="#000000" stroke="none">
    <path d="M3820 8523 c-48 -10 -124 -44 -167 -76 -70 -50 -128 -137 -225 -334
-117 -239 -164 -284 -252 -238 -15 8 -32 15 -37 15 -14 0 31 -69 83 -126 96
-104 161 -97 293 36 l79 79 44 -40 c24 -23 69 -53 100 -67 51 -24 69 -27 162
-27 95 1 111 4 165 30 192 94 277 324 190 519 -37 83 -131 176 -210 206 -59
22 -173 34 -225 23z"/>
    <path d="M7846 8510 c-116 -20 -235 -114 -290 -229 -29 -61 -31 -74 -31 -171
0 -97 2 -110 31 -170 77 -160 251 -254 426 -230 159 22 291 142 334 304 60
223 -90 451 -326 496 -59 11 -74 11 -144 0z"/>
    <path d="M6005 8469 c-4 -6 -94 -271 -200 -590 l-193 -579 102 0 103 0 197
583 c108 320 196 585 196 590 0 12 -198 8 -205 -4z"/>
    <path d="M5093 8132 l-353 -197 0 -62 0 -61 228 -112 c125 -62 287 -141 360
-176 l132 -63 0 98 0 98 -240 109 c-132 60 -240 112 -240 115 0 3 108 61 240
129 l240 123 0 99 c0 54 -3 98 -7 97 -5 0 -167 -89 -360 -197z"/>
    <path d="M6390 8233 l0 -99 240 -123 c132 -67 240 -126 240 -129 -1 -4 -109
-56 -240 -116 l-240 -109 0 -93 c0 -72 3 -94 13 -94 8 0 170 77 360 170 l347
170 0 63 0 62 -352 195 c-193 107 -355 197 -360 198 -4 2 -8 -41 -8 -95z"/>
    <path d="M3330 7551 c-76 -16 -136 -66 -165 -135 -23 -54 -52 -520 -71 -1111
-6 -192 -5 -204 20 -297 30 -118 80 -216 147 -292 l51 -56 -65 0 c-61 0 -67 2
-92 32 -15 18 -32 43 -38 55 -17 38 -27 26 -27 -32 l0 -55 -665 0 c-366 0
-665 -3 -665 -6 0 -5 198 -296 410 -604 l18 -25 -214 -310 c-118 -170 -214
-313 -214 -317 0 -5 315 -8 700 -8 l700 0 4 -22 c3 -13 8 -80 12 -150 l6 -128
175 0 174 0 -3 150 -3 150 613 0 c507 0 612 -2 612 -14 0 -7 14 -203 30 -436
17 -233 30 -434 30 -446 l0 -24 170 0 c168 0 170 0 174 23 3 12 19 200 36 417
17 217 33 414 37 438 l5 42 664 0 663 0 5 -42 c3 -24 17 -221 31 -438 15 -217
28 -405 31 -418 4 -22 6 -22 174 -22 170 0 170 0 170 23 0 12 16 211 35 442
19 231 35 428 35 438 0 16 36 17 625 17 l625 0 0 -145 0 -145 173 2 172 3 9
143 8 142 795 0 c632 0 794 3 790 13 -2 6 -99 149 -215 317 l-210 305 86 125
c47 69 142 206 210 305 69 99 127 186 129 193 4 9 -150 12 -750 12 l-756 0 -3
52 -3 53 -37 -53 -38 -52 -66 0 -66 0 51 57 c56 63 119 183 147 283 23 80 23
267 -1 760 -21 442 -32 593 -46 640 -16 52 -61 106 -112 132 -54 28 -191 32
-798 21 l-445 -8 -43 -28 c-46 -30 -76 -73 -91 -127 -12 -49 -74 -640 -67
-647 4 -3 68 -18 144 -33 330 -67 629 -162 871 -276 l112 -53 0 -98 c0 -122
-18 -210 -53 -261 -15 -21 -76 -97 -136 -169 -60 -71 -116 -144 -125 -161
l-17 -32 -500 0 -501 0 6 68 c22 237 35 510 26 541 -13 48 -47 93 -89 122
l-36 24 -893 3 c-869 2 -893 2 -931 -17 -50 -26 -98 -81 -111 -129 -7 -29 -5
-113 10 -322 11 -156 20 -285 20 -287 0 -1 -225 -3 -499 -3 l-499 0 -6 23 c-3
12 -62 90 -131 172 -156 186 -173 219 -184 353 -5 56 -7 119 -4 141 5 38 8 40
87 77 265 121 581 221 915 289 69 14 126 27 128 28 8 9 -66 646 -79 677 -19
44 -72 99 -113 115 -35 15 -1135 29 -1195 16z m3454 -1303 c12 -20 12 -56 -4
-283 -11 -143 -19 -270 -20 -282 l0 -23 -850 0 -850 0 0 23 c-1 12 -9 139 -20
282 -16 227 -16 263 -4 283 l14 22 860 0 860 0 14 -22z m-473 -815 c15 -24 20
-44 16 -68 l-6 -34 68 6 c47 4 70 2 75 -6 5 -8 12 -9 19 -3 8 6 32 4 67 -5 87
-22 140 -88 140 -173 0 -33 -70 -125 -95 -125 -26 -1 -62 -22 -53 -30 16 -16
-213 -178 -355 -251 -57 -29 -77 -44 -77 -59 0 -33 -13 -41 -66 -40 -59 0 -82
15 -120 80 -29 50 -23 78 21 104 28 16 37 32 54 86 12 37 21 77 21 89 0 11 11
45 25 74 30 66 31 85 4 123 -12 17 -18 37 -14 48 5 17 80 61 104 61 5 0 16 15
24 33 8 17 25 54 38 80 23 50 54 72 76 55 7 -6 22 -26 34 -45z m-3594 2 c13
-9 23 -30 27 -60 4 -25 8 -45 9 -45 1 0 20 7 42 15 53 19 144 20 151 1 3 -8
13 -12 25 -9 27 7 79 -48 79 -84 0 -21 -16 -42 -67 -90 -36 -34 -70 -60 -75
-57 -5 3 -29 -13 -54 -36 -25 -23 -49 -38 -56 -34 -6 4 -8 3 -4 -4 7 -12 -29
-27 -43 -17 -5 3 -12 2 -15 -3 -12 -19 256 -262 288 -262 7 0 21 21 31 48 29
78 83 159 213 322 251 313 317 356 402 265 36 -38 48 -168 27 -274 -16 -80
-16 -84 3 -121 30 -58 27 -78 -12 -82 -28 -3 -33 -8 -40 -38 -18 -81 -29 -138
-33 -180 -8 -68 -16 -99 -26 -106 -17 -10 -95 29 -106 53 -8 17 -6 45 8 115
10 51 18 99 19 107 0 20 -40 8 -145 -44 -128 -63 -124 -59 -95 -90 l25 -27
-25 -19 c-14 -11 -41 -32 -60 -47 -19 -16 -51 -32 -70 -35 -19 -4 -55 -11 -79
-16 -38 -8 -53 -5 -95 14 -64 28 -76 40 -213 205 -61 74 -122 141 -134 149
-28 16 -35 9 -84 -94 -27 -56 -33 -78 -29 -110 5 -36 2 -43 -31 -75 -34 -33
-37 -34 -63 -19 -24 13 -51 53 -56 83 -1 6 -5 16 -9 23 -21 34 164 453 285
646 32 49 50 57 85 32z m1470 -2 c3 -10 15 -29 27 -41 17 -20 21 -35 19 -88
-1 -42 -8 -70 -17 -80 -8 -8 -29 -41 -46 -73 -32 -59 -75 -113 -101 -125 -10
-4 -11 -7 -2 -12 10 -4 8 -15 -7 -45 -38 -73 -110 -280 -110 -314 0 -33 -1
-34 -27 -24 -70 26 -123 90 -123 146 0 90 83 280 220 503 97 160 106 170 137
170 13 0 26 -7 30 -17z m429 -2 c47 -29 61 -79 39 -139 -30 -79 -75 -162 -115
-213 -21 -27 -42 -59 -46 -72 -4 -12 -17 -35 -30 -50 -13 -16 -24 -32 -24 -36
0 -5 33 1 72 12 57 15 79 17 101 9 19 -7 37 -8 53 -1 14 5 42 9 63 9 21 0 58
7 81 15 35 12 46 13 58 3 13 -11 14 -11 8 0 -12 20 21 26 46 8 12 -9 27 -16
33 -16 5 0 3 4 -5 10 -17 10 -14 15 19 25 20 6 23 4 18 -9 -4 -10 -3 -15 3
-11 6 3 10 -1 10 -9 0 -9 -17 -24 -37 -35 l-38 -20 34 6 c25 4 32 3 27 -5 -4
-7 -12 -12 -17 -12 -5 0 -42 -16 -82 -35 -39 -19 -82 -35 -95 -35 -25 0 -313
-107 -377 -140 -42 -21 -90 -26 -100 -10 -3 6 -14 10 -24 10 -10 0 -26 11 -35
25 -9 14 -23 25 -31 25 -9 0 -15 9 -15 21 0 35 57 193 99 276 64 126 248 412
266 413 6 0 24 -9 41 -19z m2420 -44 c16 -31 33 -54 37 -51 4 4 7 -1 7 -11 0
-15 -103 -240 -117 -255 -2 -2 -8 2 -13 10 -7 11 -10 1 -10 -32 0 -29 -6 -53
-16 -62 -8 -9 -13 -16 -10 -16 3 0 0 -14 -6 -31 -7 -19 -15 -28 -24 -25 -15 6
-17 2 -8 -31 7 -27 36 -30 105 -9 118 36 200 118 298 299 24 42 49 77 57 77 7
0 11 6 8 13 -8 21 42 142 60 145 9 2 29 -6 46 -18 23 -16 30 -29 30 -53 0 -18
7 -45 15 -61 19 -37 11 -82 -16 -89 -13 -4 -18 -12 -17 -29 2 -15 -2 -23 -12
-23 -21 0 -37 -32 -45 -87 -14 -101 -154 -263 -284 -332 -75 -39 -185 -67
-238 -61 -44 6 -124 69 -145 113 -20 43 -23 100 -7 157 13 47 194 469 215 503
25 39 55 25 90 -41z m894 43 c26 -7 27 -15 16 -72 -5 -28 -5 -28 44 -28 28 0
50 -4 50 -9 0 -5 23 -11 50 -15 52 -7 59 -13 38 -35 -11 -10 -8 -10 15 -2 35
13 37 13 37 1 0 -20 -87 -53 -218 -81 -75 -16 -137 -29 -138 -29 -1 0 -11 -16
-23 -35 -11 -19 -17 -35 -13 -35 4 0 36 9 72 20 87 27 116 26 144 -5 28 -30
41 -74 27 -88 -5 -5 -54 -17 -109 -27 -56 -10 -126 -26 -157 -35 -51 -14 -58
-20 -75 -58 -10 -23 -21 -61 -25 -84 -8 -51 5 -57 99 -49 39 4 67 2 71 -4 3
-5 11 -10 17 -10 7 0 6 5 -1 14 -10 12 -1 18 60 36 39 12 79 24 87 28 12 4 14
1 9 -12 -6 -15 -4 -17 10 -11 10 4 33 9 52 12 47 8 33 -11 -24 -33 -37 -13
-43 -19 -34 -31 7 -7 20 -11 30 -8 22 7 25 -8 5 -28 -27 -27 -178 -70 -262
-75 -95 -5 -141 7 -189 50 -48 42 -68 101 -64 190 4 67 10 85 78 223 43 87 77
169 80 195 5 37 11 47 36 59 17 8 49 31 72 52 44 40 51 41 133 19z m637 0 c22
-13 35 -31 43 -59 9 -36 7 -47 -30 -133 -23 -52 -59 -116 -81 -142 -21 -27
-47 -67 -57 -90 -10 -22 -26 -47 -35 -55 -10 -7 -17 -19 -17 -26 0 -9 19 -7
72 8 55 15 79 17 100 9 16 -6 42 -6 65 -1 76 16 158 31 176 32 9 1 17 5 17 9
0 14 30 9 57 -9 18 -12 24 -13 19 -4 -5 8 -3 17 5 22 23 14 42 11 35 -7 -3 -8
-2 -12 4 -9 6 3 10 -1 10 -10 0 -16 -41 -38 -145 -77 -43 -16 -45 -18 -14 -13
19 3 53 14 74 25 22 11 48 20 60 19 26 -1 -153 -88 -183 -89 -28 0 -308 -103
-370 -136 -25 -13 -55 -24 -67 -24 -53 0 -145 63 -145 98 0 40 44 160 97 267
59 120 250 415 267 415 6 0 25 -9 43 -20z m-3047 -60 c16 -17 32 -43 36 -58 3
-15 7 -32 9 -38 2 -7 -4 -22 -13 -35 -9 -13 -16 -25 -14 -26 11 -13 -5 -21
-35 -19 -32 3 -38 8 -37 26 1 21 -2 22 -55 16 -58 -7 -140 -40 -193 -77 l-30
-22 23 -18 c24 -19 146 -95 184 -114 34 -18 59 -94 51 -159 -4 -31 -12 -56
-19 -56 -6 0 -22 -11 -36 -24 -15 -14 -52 -40 -85 -60 -44 -27 -65 -34 -87
-29 -22 4 -29 2 -29 -10 0 -11 -18 -21 -52 -32 -73 -21 -97 -19 -147 15 -24
17 -47 30 -51 30 -3 0 -16 24 -29 54 -18 44 -20 58 -10 79 18 39 37 41 76 7
36 -32 42 -33 134 -4 51 16 139 68 139 83 0 14 -113 108 -135 112 -30 6 -61
62 -75 132 -10 55 -9 69 3 93 49 94 202 163 360 164 85 0 89 -1 117 -30z
m3950 0 c16 -17 32 -43 36 -58 3 -15 7 -32 9 -38 2 -7 -4 -22 -13 -35 -9 -13
-16 -25 -14 -26 11 -13 -5 -21 -35 -19 -32 3 -38 8 -37 26 1 21 -2 22 -55 16
-58 -7 -140 -40 -193 -77 l-30 -22 23 -18 c24 -19 146 -95 184 -114 34 -18 59
-94 51 -159 -4 -31 -12 -56 -19 -56 -6 0 -22 -11 -36 -24 -15 -14 -52 -40 -85
-60 -44 -27 -65 -34 -87 -29 -22 4 -29 2 -29 -10 0 -11 -18 -21 -52 -32 -73
-21 -97 -19 -147 15 -24 17 -47 30 -51 30 -3 0 -16 24 -29 54 -18 44 -20 58
-10 79 18 39 37 41 76 7 36 -32 42 -33 134 -4 51 16 139 68 139 83 0 14 -113
108 -135 112 -30 6 -61 62 -75 132 -10 55 -9 69 3 93 49 94 202 163 360 164
85 0 89 -1 117 -30z"/>
    <path d="M5876 5910 c-95 -29 -121 -151 -45 -214 24 -20 41 -26 81 -26 44 0
54 4 84 34 30 30 34 40 34 84 0 72 -34 110 -110 127 -8 2 -28 -1 -44 -5z"/>
    <path d="M6475 5209 c-65 -7 -142 -29 -208 -59 -28 -14 -61 -65 -51 -81 3 -5
2 -15 -3 -21 -7 -12 -32 -94 -33 -111 0 -10 114 48 168 85 24 17 46 27 50 24
3 -4 20 8 38 25 18 17 43 37 55 43 37 18 91 110 62 105 -5 -1 -39 -5 -78 -10z"/>
    <path d="M3539 5195 c-29 -35 -56 -62 -61 -59 -4 3 -8 -2 -8 -10 0 -9 -22 -46
-50 -84 -27 -38 -50 -71 -50 -74 0 -3 21 5 46 18 26 13 61 26 79 30 27 5 34
12 44 44 8 26 16 37 25 34 9 -4 16 11 24 48 6 31 7 54 1 56 -14 6 -10 32 6 38
8 4 15 10 15 15 0 22 -23 4 -71 -56z"/>
    <path d="M5615 6733 c-738 -35 -1364 -164 -1847 -380 l-58 -26 0 -74 c0 -56 3
-74 13 -70 6 3 62 28 122 55 369 166 848 278 1445 339 249 25 978 25 1230 0
616 -62 1081 -173 1488 -355 l113 -51 -3 77 -3 77 -124 53 c-454 195 -1051
316 -1726 352 -172 9 -496 11 -650 3z"/>
  </g>
</svg>